<svg xmlns="http://www.w3.org/2000/svg" viewBox="0 0 224 64" width="448" height="128" role="img" aria-label="핀치 Finch 로고">
  <svg x="14" y="16" width="32" height="32" viewBox="0 0 32 32">
    <mask id="eye">
      <rect width="32" height="32" fill="#fff"/>
      <circle cx="20" cy="11.5" r="1.5" fill="#000"/>
    </mask>
    <path d="M6 18.5c0-5.8 4.7-10.5 10.5-10.5 3.4 0 6.5 1.7 8.4 4.2l4.1-1.2-2.4 4.4c.2.8.4 1.7.4 2.6 0 5.8-4.7 10.5-10.5 10.5-2.3 0-4.5-.8-6.2-2L4 28l2.7-5.2c-.5-1.3-.7-2.8-.7-4.3z" fill="#FF6B4A" mask="url(#eye)"/>
  </svg>
  <text x="58" y="41" font-family="Pretendard, -apple-system, 'Malgun Gothic', sans-serif" font-size="29" font-weight="700" fill="#F7F8FA">핀치</text>
  <text x="126" y="41" font-family="Pretendard, -apple-system, sans-serif" font-size="29" font-weight="700" fill="#F7F8FA" opacity="0.45">Finch</text>
</svg>
