<svg xmlns="http://www.w3.org/2000/svg" viewBox="0 0 1200 630" width="1200" height="630" role="img" aria-label="핀치 소셜 공유 이미지">
  <rect width="1200" height="630" fill="#0C0C11"/>
  <rect x="0.5" y="0.5" width="1199" height="629" fill="none" stroke="#FFFFFF" stroke-opacity="0.08"/>
  <!-- 심볼 -->
  <svg x="96" y="150" width="120" height="120" viewBox="0 0 32 32">
    <mask id="eye">
      <rect width="32" height="32" fill="#fff"/>
      <circle cx="20" cy="11.5" r="1.5" fill="#000"/>
    </mask>
    <path d="M6 18.5c0-5.8 4.7-10.5 10.5-10.5 3.4 0 6.5 1.7 8.4 4.2l4.1-1.2-2.4 4.4c.2.8.4 1.7.4 2.6 0 5.8-4.7 10.5-10.5 10.5-2.3 0-4.5-.8-6.2-2L4 28l2.7-5.2c-.5-1.3-.7-2.8-.7-4.3z" fill="#FF6B4A" mask="url(#eye)"/>
  </svg>
  <text x="240" y="242" font-family="Pretendard, -apple-system, 'Malgun Gothic', sans-serif" font-size="68" font-weight="800" fill="#F7F8FA">핀치</text>
  <text x="96" y="360" font-family="Pretendard, -apple-system, 'Malgun Gothic', sans-serif" font-size="52" font-weight="700" fill="#F7F8FA">채널 분석부터 광고 관리까지,</text>
  <text x="96" y="426" font-family="Pretendard, -apple-system, 'Malgun Gothic', sans-serif" font-size="52" font-weight="700" fill="#FF6B4A">대시보드 하나로</text>
  <text x="96" y="510" font-family="Pretendard, -apple-system, 'Malgun Gothic', sans-serif" font-size="26" font-weight="400" fill="#F7F8FA" opacity="0.64">인스타그램 · 틱톡 · 쓰레드 통합 분석 &amp; 메타광고 관리</text>
</svg>
